HIERARCHY
ROOT RootJoint
{
    OFFSET   0.000000   0.000000   0.000000
    CHANNELS 6 Xposition Yposition Zposition Xrotation Yrotation Zrotation
    JOINT pelvis_lowerback
    {
        OFFSET   0.000000   0.093605   0.000000
        CHANNELS 3 Xrotation Yrotation Zrotation
        JOINT lowerback_torso
        {
            OFFSET   0.000000   0.100000   0.000000
            CHANNELS 3 Xrotation Yrotation Zrotation
            JOINT torso_head
            {
                OFFSET   0.000000   0.282350   0.000000
                CHANNELS 3 Xrotation Yrotation Zrotation
                End Site
                {
                    OFFSET   0.000000   0.192650   0.000000
                }
            }
            JOINT rTorso_Clavicle
            {
                OFFSET  -0.001000   0.157500   0.000000
                CHANNELS 3 Xrotation Yrotation Zrotation
                JOINT rShoulder
                {
                    OFFSET  -0.117647   0.000000   0.000000
                    CHANNELS 3 Xrotation Yrotation Zrotation
                    JOINT rElbow
                    {
                        OFFSET  -0.245000   0.000000   0.000000
                        CHANNELS 3 Xrotation Yrotation Zrotation
                        JOINT rWrist
                        {
                            OFFSET  -0.240000   0.000000   0.000000
                            CHANNELS 3 Xrotation Yrotation Zrotation
                            End Site
                            {
                                OFFSET  -0.116353  -0.002500   0.000000
                            }
                        }
                    }
                }
            }
            JOINT lTorso_Clavicle
            {
                OFFSET   0.001000   0.157500   0.000000
                CHANNELS 3 Xrotation Yrotation Zrotation
                JOINT lShoulder
                {
                    OFFSET   0.117647   0.000000   0.000000
                    CHANNELS 3 Xrotation Yrotation Zrotation
                    JOINT lElbow
                    {
                        OFFSET   0.245000   0.000000   0.000000
                        CHANNELS 3 Xrotation Yrotation Zrotation
                        JOINT lWrist
                        {
                            OFFSET   0.240000   0.000000   0.000000
                            CHANNELS 3 Xrotation Yrotation Zrotation
                            End Site
                            {
                                OFFSET   0.116353  -0.002500   0.000000
                            }
                        }
                    }
                }
            }
        }
    }
    JOINT rHip
    {
        OFFSET  -0.100000  -0.051395   0.000000
        CHANNELS 3 Xrotation Yrotation Zrotation
        JOINT rKnee
        {
            OFFSET   0.000000  -0.410000   0.000000
            CHANNELS 3 Xrotation Yrotation Zrotation
            JOINT rAnkle
            {
                OFFSET   0.000000  -0.390000   0.000000
                CHANNELS 3 Xrotation Yrotation Zrotation
                JOINT rToeJoint
                {
                    OFFSET   0.000000  -0.050000   0.130000
                    CHANNELS 3 Xrotation Yrotation Zrotation
                    End Site
                    {
                        OFFSET  -0.010000   0.002000   0.060000
                    }
                }
            }
        }
    }
    JOINT lHip
    {
        OFFSET   0.100000  -0.051395   0.000000
        CHANNELS 3 Xrotation Yrotation Zrotation
        JOINT lKnee
        {
            OFFSET   0.000000  -0.410000   0.000000
            CHANNELS 3 Xrotation Yrotation Zrotation
            JOINT lAnkle
            {
                OFFSET   0.000000  -0.390000   0.000000
                CHANNELS 3 Xrotation Yrotation Zrotation
                JOINT lToeJoint
                {
                    OFFSET   0.000000  -0.050000   0.130000
                    CHANNELS 3 Xrotation Yrotation Zrotation
                    End Site
                    {
                        OFFSET   0.010000   0.002000   0.060000
                    }
                }
            }
        }
    }
}
MOTION
Frames: 17
Frame Time:   0.008333
 -2.431358   0.902067   4.127756   0.664290  -2.426393   2.111522   8.236917   3.586917  -0.433836   2.607559   0.204208   1.598648  -2.835715   1.202937   0.106291   3.104836  -1.714925   8.929873   5.382215   9.306175  48.819413  -0.000181  20.319693   0.000608   3.299112   2.758308   0.862489   2.755455   3.939220  -8.989392   8.982773  -6.448923 -51.029334  -0.000004 -27.877029  -0.000117   4.257447  -4.045683  -0.635140   1.532153  -0.898087  -3.073340  18.024500   0.000013   0.001044 -20.638829  -1.524863  -1.909862   2.201585  -0.000274   0.000194 -17.281904  -0.825193   4.137746  42.442535  -0.000399  -0.001179 -14.821064   8.288093   2.137044  -3.884602   0.002263  -0.001263
 -2.430999   0.901801   4.131544   0.755511  -2.536246   2.259427   8.443582   3.720938  -0.431826   2.640844   0.317144   1.466901  -2.992774   1.214768   0.087000   3.048501  -1.544590   8.952942   5.225947   9.429845  48.752392  -0.000206  20.267847   0.000684   3.311345   2.712168   0.899729   2.743683   4.038215  -9.057642   9.084640  -6.362611 -50.968679  -0.000002 -27.844484  -0.000069   4.251884  -4.079690  -0.653324   1.772107  -0.935460  -3.285488  17.856780  -0.000033   0.001045 -20.811230  -1.400378  -1.857648   2.200649  -0.000220   0.000156 -17.947288  -0.855730   4.026175  41.647668   0.000346  -0.000223 -14.749703   8.312263   1.989502  -3.717664   0.002205  -0.001073
 -2.430626   0.901437   4.135405   0.856906  -2.606859   2.387951   8.652768   3.846031  -0.416672   2.668402   0.426362   1.339614  -3.146054   1.224142   0.066531   2.983128  -1.372018   8.966930   5.070299   9.553278  48.685165  -0.000214  20.222674   0.000728   3.323061   2.668926   0.935045   2.734725   4.128832  -9.122641   9.181898  -6.280284 -50.913513  -0.000002 -27.810622  -0.000028   4.247490  -4.091238  -0.669388   2.003637  -0.988742  -3.473792  17.703860  -0.000073   0.000996 -20.993096  -1.299992  -1.803704   2.163818  -0.000182   0.000125 -18.629012  -0.895401   3.959435  40.746808   0.001058   0.000280 -14.687206   8.333730   1.851537  -3.550322   0.002145  -0.000861
 -2.430218   0.900977   4.139399   0.950113  -2.662498   2.505911   8.865226   3.974508  -0.401504   2.703147   0.538818   1.218669  -3.287666   1.232979   0.047452   2.913404  -1.202555   8.974917   4.918405   9.673720  48.618409  -0.000213  20.183292   0.000745   3.334404   2.638733   0.960900   2.728519   4.214454  -9.185090   9.274349  -6.202285 -50.863529  -0.000004 -27.777847   0.000008   4.243488  -4.092681  -0.687641   2.245201  -1.045708  -3.652156  17.569445  -0.000105   0.000923 -21.177685  -1.212464  -1.750644   2.027074  -0.000171   0.000099 -19.316038  -0.940524   3.919561  39.856972   0.001673   0.000523 -14.630638   8.353590   1.722933  -3.396472   0.002038  -0.000676
 -2.429760   0.900424   4.143563   1.033744  -2.714354   2.618151   9.075313   4.107159  -0.390302   2.744829   0.655270   1.102305  -3.417743   1.241594   0.029650   2.842595  -1.038664   8.979554   4.772236   9.789770  48.553713  -0.000205  20.148444   0.000740   3.345509   2.619201   0.979349   2.727008   4.298049  -9.245422   9.364019  -6.126928 -50.818321  -0.000007 -27.745600   0.000038   4.239703  -4.085536  -0.708320   2.500411  -1.101140  -3.827870  17.451765  -0.000130   0.000842 -21.365404  -1.132289  -1.699083   1.788126  -0.000192   0.000076 -19.998275  -0.988950   3.896636  39.005715   0.002189   0.000657 -14.578681   8.371999   1.603028  -3.256448   0.001897  -0.000532
 -2.429246   0.899780   4.147913   1.110455  -2.767550   2.726456   9.278331   4.242379  -0.383728   2.790449   0.774475   0.989752  -3.537727   1.249977   0.012851   2.772626  -0.881693   8.982311   4.632784   9.900716  48.492060  -0.000194  20.117284   0.000719   3.356340   2.607466   0.992977   2.730896   4.380820  -9.303751   9.451940  -6.053385 -50.777642  -0.000011 -27.713537   0.000063   4.236094  -4.069192  -0.731654   2.768544  -1.152860  -4.003824  17.347990  -0.000150   0.000763 -21.556436  -1.056755  -1.649247   1.452130  -0.000249   0.000054 -20.669291  -1.039526   3.885812  38.199498   0.002609   0.000754 -14.530734   8.389045   1.491219  -3.129408   0.001736  -0.000427
 -2.428672   0.899047   4.152456   1.183526  -2.824603   2.831308   9.471212   4.378278  -0.381369   2.837158   0.894782   0.880906  -3.648984   1.258080  -0.003091   2.704536  -0.732242   8.984010   4.500412  10.006280  48.433905  -0.000182  20.089244   0.000686   3.366843   2.601595   1.003467   2.739782   4.462834  -9.360052   9.538207  -5.981556 -50.741170  -0.000014 -27.681681   0.000084   4.232646  -4.044033  -0.757584   3.047564  -1.199971  -4.181052  17.255653  -0.000165   0.000689 -21.750803  -0.984364  -1.601157   1.025644  -0.000345   0.000031 -21.324803  -1.091497   3.884465  37.439043   0.002938   0.000846 -14.486407   8.404823   1.386952  -3.014307   0.001568  -0.000354
 -2.428116   0.898218   4.157055   1.305248  -2.846361   2.934089   9.643517   4.488449  -0.376695   2.862176   0.980252   0.748846  -3.810960   1.267303   0.002297   2.658327  -0.537255   9.042816   4.349990  10.148409  48.323629  -0.000143  20.091381   0.000540   3.367232   2.531634   1.027510   2.748751   4.531225  -9.436993   9.643519  -5.903756 -50.670006  -0.000097 -27.503635   0.000162   4.242166  -4.111911  -0.745933   3.260953  -1.263424  -4.353038  17.223794  -0.000149   0.000574 -22.060065  -0.942824  -1.515533   1.032199  -0.000276   0.000024 -21.961878  -1.100375   3.914061  36.345934   0.003446   0.000311 -14.373126   8.395476   1.296006  -2.977003   0.001314  -0.000272
 -2.427551   0.897275   4.161777   1.430339  -2.836962   3.018044   9.817558   4.592934  -0.366269   2.885356   1.063734   0.623426  -3.966714   1.274206   0.007202   2.600766  -0.341077   9.099432   4.197858  10.291508  48.219717  -0.000108  20.098792   0.000399   3.367867   2.482254   1.046335   2.762779   4.593264  -9.514353   9.747411  -5.827305 -50.604405  -0.000189 -27.329016   0.000228   4.253783  -4.125895  -0.740872   3.477914  -1.334711  -4.500898  17.205024  -0.000130   0.000468 -22.384495  -0.912729  -1.427219   1.017417  -0.000220   0.000019 -22.605397  -1.115519   3.968853  35.238334   0.003868  -0.000424 -14.270086   8.386168   1.211172  -2.937846   0.001110  -0.000195
 -2.426953   0.896223   4.166665   1.551146  -2.816296   3.092110   9.990810   4.702578  -0.359104   2.913105   1.152890   0.503367  -4.111020   1.280535   0.011614   2.538193  -0.149349   9.152802   4.048772  10.431476  48.122794  -0.000077  20.109100   0.000272   3.368319   2.452643   1.060287   2.780146   4.653641  -9.590442   9.847760  -5.753709 -50.545670  -0.000274 -27.163708   0.000296   4.265425  -4.119570  -0.743060   3.706970  -1.409569  -4.639193  17.196185  -0.000110   0.000378 -22.705366  -0.891568  -1.341585   0.880372  -0.000172   0.000014 -23.245589  -1.135637   4.034528  34.176590   0.004184  -0.001058 -14.175145   8.377393   1.132200  -2.902928   0.000936  -0.000134
 -2.426309   0.895067   4.171741   1.669007  -2.792801   3.160294  10.158996   4.817830  -0.357377   2.944280   1.248014   0.386915  -4.244475   1.286687   0.015401   2.473777   0.035760   9.203248   3.904810  10.566692  48.032752  -0.000051  20.121062   0.000162   3.368778   2.437123   1.071537   2.801292   4.714143  -9.664840   9.945237  -5.682255 -50.493229  -0.000349 -27.007530   0.000361   4.276654  -4.102538  -0.750760   3.948594  -1.484173  -4.773954  17.194525  -0.000089   0.000303 -23.022931  -0.875191  -1.259081   0.626109  -0.000144   0.000005 -23.875688  -1.159542   4.104633  33.173079   0.004399  -0.001507 -14.087205   8.369098   1.058652  -2.872396   0.000787  -0.000089
 -2.425611   0.893811   4.177010   1.787008  -2.770619   3.224102  10.319077   4.937050  -0.361121   2.976596   1.347612   0.273420  -4.368344   1.292702   0.018497   2.409171   0.213211   9.250865   3.766851  10.696422  47.949243  -0.000029  20.134008   0.000071   3.369265   2.431884   1.081192   2.826119   4.775156  -9.737200  10.040164  -5.612631 -50.446480  -0.000411 -26.859954   0.000416   4.287390  -4.077217  -0.763020   4.200957  -1.556624  -4.907600  17.197399  -0.000070   0.000242 -23.337519  -0.861537  -1.179879   0.263590  -0.000148  -0.000006 -24.491383  -1.186377   4.176434  32.228973   0.004522  -0.001769 -14.005607   8.361239   0.990138  -2.845915   0.000659  -0.000058
 -2.424856   0.892454   4.182473   1.908277  -2.752080   3.284016  10.469247   5.058332  -0.369736   3.008130   1.449909   0.162788  -4.483741   1.298555   0.020929   2.345293   0.382562   9.295671   3.635216  10.820366  47.871800  -0.000012  20.147543  -0.000004   3.369759   2.434587   1.089614   2.853953   4.836354  -9.807223  10.132386  -5.544932 -50.404822  -0.000461 -26.720596   0.000456   4.297630  -4.045079  -0.779102   4.461594  -1.625899  -5.041108  17.202767  -0.000052   0.000191 -23.649360  -0.849365  -1.103954  -0.198376  -0.000191  -0.000021 -25.089718  -1.215484   4.248722  31.342519   0.004561  -0.001870 -13.929834   8.353792   0.926303  -2.823068   0.000551  -0.000037
 -2.424091   0.891039   4.188074   2.054854  -2.717819   3.335713  10.627380   5.145141  -0.390495   2.999558   1.530218   0.056738  -4.648584   1.266931   0.063941   2.292263   0.573040   9.373200   3.463817  10.963936  47.779771   0.000069  20.249998  -0.000432   3.361569   2.346129   1.080324   2.883147   4.876243  -9.891365  10.262941  -5.451022 -50.320084  -0.000691 -26.403862   0.000451   4.315594  -4.133072  -0.784868   4.724571  -1.691858  -5.168386  17.189009  -0.000053   0.000156 -24.038796  -0.860373  -0.943545  -0.197218  -0.000154  -0.000017 -25.736328  -1.144204   4.343747  30.542431   0.004205  -0.002678 -13.858238   8.364663   0.950941  -2.886444   0.000425  -0.000133
 -2.423273   0.889547   4.193844   2.212550  -2.688205   3.384032  10.778521   5.233811  -0.419285   2.985641   1.615325  -0.044167  -4.808123   1.234137   0.105718   2.224063   0.766623   9.450333   3.287460  11.112346  47.697697   0.000140  20.355573  -0.000783   3.352039   2.305429   1.059759   2.923383   4.917883  -9.966073  10.397355  -5.352172 -50.233913  -0.000856 -26.094893   0.000439   4.335661  -4.141863  -0.793671   4.996222  -1.755680  -5.295174  17.158524  -0.000068   0.000133 -24.431917  -0.871880  -0.786730  -0.197555  -0.000123  -0.000013 -26.379277  -1.072969   4.438596  29.791797   0.003885  -0.003203 -13.791886   8.376152   0.974152  -2.948432   0.000326  -0.000203
 -2.422390   0.887970   4.199782   2.380649  -2.665737   3.429566  10.920477   5.330459  -0.452177   2.970713   1.709227  -0.141159  -4.957598   1.203015   0.143802   2.148698   0.957923   9.523509   3.113110  11.259653  47.622691   0.000199  20.459339  -0.001059   3.342138   2.297430   1.034509   2.967870   4.962209 -10.032174  10.528748  -5.254264 -50.150988  -0.000954 -25.802670   0.000451   4.355620  -4.118959  -0.802413   5.274325  -1.815662  -5.423357  17.117173  -0.000091   0.000118 -24.832207  -0.883227  -0.635134  -0.198091  -0.000098  -0.000011 -27.008524  -1.010042   4.530499  29.084986   0.003609  -0.003444 -13.730335   8.387052   0.995847  -3.006739   0.000249  -0.000243
 -2.421437   0.886304   4.205883   2.560501  -2.649869   3.472059  11.052718   5.433889  -0.487042   2.954963   1.810053  -0.234251  -5.097272   1.173975   0.178618   2.069859   1.144428   9.591869   2.943488  11.403449  47.553294   0.000249  20.559752  -0.001266   3.332350   2.310410   1.006740   3.014117   5.008174 -10.091635  10.655236  -5.158986 -50.072360  -0.001004 -25.527876   0.000472   4.374863  -4.082888  -0.809687   5.556288  -1.872008  -5.552939  17.066698  -0.000119   0.000110 -25.240229  -0.894740  -0.488380  -0.198327  -0.000078  -0.000009 -27.620383  -0.955273   4.619274  28.419795   0.003358  -0.003475 -13.673205   8.397293   1.016121  -3.061335   0.000189  -0.000261
